<svg xmlns="http://www.w3.org/2000/svg" width="140" height="34.049" viewBox="0 0 140 34.049">
  <g id="Ceda_Logo" data-name="Ceda Logo" transform="translate(-0.1 -0.93)">
    <path id="Path_32936" data-name="Path 32936" d="M96.681,6.673a13.458,13.458,0,0,0-5.848-3.586C87.159,1.917,83.747,2,79.735,2,77.84,2,68.647,1.9,67.584,2.043V21.821L76.6,12.754l6.873,6.854Z" fill="#fff" fill-rule="evenodd"/>
    <path id="Path_32937" data-name="Path 32937" d="M67.564,33.788a58.247,58.247,0,0,0,6.109.039c5.123,0,12.924.367,17.226-1.112,6.129-2.117,9.56-6.825,9.541-14.848A19.325,19.325,0,0,0,99.2,10.733L83.494,26.451l-6.9-6.815-9.038,8.777v5.375Z" fill="#d92028" fill-rule="evenodd"/>
    <path id="Path_32938" data-name="Path 32938" d="M46.113,9.623H64.635l-.01-7.656L36.6,2V33.761l28.033.029V26.095l-18.521-.039v-5l17.835-.019v-6.38L46.113,14.62Z" fill="#fff" fill-rule="evenodd"/>
    <path id="Path_32939" data-name="Path 32939" d="M108.628,33.78c.193-.735.531-1.6.792-2.339.116-.338.59-2.136.948-2.233h14.026c.3.106,1.614,4.2,1.7,4.582h9.851c-.455-1.6-5.259-14.055-5.994-16.018L124.336,2.779a4.6,4.6,0,0,0-.174-.474c-.232-.464.01-.193-.309-.338H110.7L98.826,33.78ZM116.506,10.9l1.7.029,3.809,11.184-9.348-.01Z" fill="#fff" fill-rule="evenodd"/>
    <path id="Path_32940" data-name="Path 32940" d="M.1,16.446v2.591c.367,1.073.068,3.2,1.5,6.341a16.457,16.457,0,0,0,3.229,4.756,17.988,17.988,0,0,0,11.242,4.746c9.27.686,17.41-3.789,18.154-13.611H25.146c-1.189,4.466-5.21,6.177-9.241,5.239-3.693-.86-6.332-4.041-6.351-8.487C9.5,7.485,23.329,6.441,25.127,14.6h9.106C33.315,5.475,26.355.4,16.34,1.057c-7.791.512-13.669,4.8-15.6,11.987C.506,13.875.332,15.915.1,16.446Z" fill="#fff" fill-rule="evenodd"/>
    
  </g>
</svg>
